<svg width="180" height="180" viewBox="0 0 180 180" fill="none" xmlns="http://www.w3.org/2000/svg">
<rect width="180" height="180" fill="#EFE3CD"/>
<path fill-rule="evenodd" clip-rule="evenodd" d="M8 27.8996V47.7992H27.8996H47.7992V27.8996V8H27.8996H8V27.8996ZM52.9456 13.6611V19.3222H55.8619H58.7782V22.2385V25.1548H55.8619H52.9456V27.8996V30.6444H56.0335H59.1213V27.8996V25.1548H61.8661H64.6109V19.4937V13.8326H67.3556H70.1004V16.5774V19.3222H73.0167H75.9331V16.5774V13.8326H78.6778H81.4226V16.5774V19.3222H84.3389H87.2552V16.5774V13.8326H92.7448H98.2343V19.4937V25.1548H92.5732H86.9121V30.6299V36.1051L84.2531 36.2053L81.5941 36.3054L81.494 38.9644L81.3938 41.6234H78.6778H75.9619L75.8617 38.9644L75.7615 36.3054L73.1025 36.2053L70.4435 36.1051V33.3747V30.6444H67.3556H64.2678V33.3747V36.1051L61.6088 36.2053L58.9498 36.3054L58.8499 38.9507L58.7498 41.596L55.9336 41.6955L53.1172 41.795L53.0228 47.3641L52.9288 52.9336L44.6169 53.0252L36.3054 53.1172L36.2111 58.6925L36.1167 64.2678H33.3805H30.6444V58.6067V52.9456H24.9833H19.3222V58.7782V64.6109H24.9833H30.6444V67.3556V70.1004H27.8996H25.1548V75.7615V81.4226H22.2385H19.3222V78.5063V75.59H13.6611H8V78.6778V81.7657H10.9163H13.8326V84.3389V86.9121H10.9163H8V90V93.0879H10.9163H13.8326V95.8326V98.5774H16.5774H19.3222V101.494V104.41H33.5607H47.7992V101.494V98.5774H50.3587H52.9178L53.0177 101.408L53.1172 104.238L56.1192 104.338L59.1213 104.437V92.9297V81.4226H56.205H53.2887V78.6778V75.9331H56.205H59.1213V67.5272V59.1213H64.6109H70.1004V64.5972V70.0726L67.2699 70.1725L64.4393 70.272L64.3453 76.0188L64.2513 81.7657H66.828H69.405L69.9409 80.4832C70.2356 79.7781 70.9324 78.4908 71.4893 77.6228C72.7429 75.6692 72.7423 75.59 71.4728 75.59H70.4435V73.0167V70.4435H73.0167H75.59V71.4728C75.59 72.7429 75.6311 72.7426 77.4921 71.4625C79.7346 69.9196 82.8262 68.5448 85.1747 68.0466L87.2552 67.6051V66.1078V64.6109H92.7448H98.2343L98.2559 66.7552L98.2772 68.8996L100.701 70.0881C102.189 70.8175 104.088 72.1755 105.618 73.6048C107.063 74.9539 108.415 75.9331 108.834 75.9331C109.426 75.9331 109.556 76.1423 109.556 77.0924C109.556 77.7302 109.973 79.1582 110.481 80.266C110.99 81.3739 111.661 83.3611 111.972 84.682L112.537 87.0837L114.135 87.1883L115.732 87.293V81.613V75.9331H118.305H120.879V78.8494V81.7657H126.54H132.201V84.3389V86.9121H129.456H126.711V90V93.0879H129.456H132.201V95.8326V98.5774H135.117H138.033V101.322V104.067H132.372H126.711V109.728V115.389H123.967H121.222V112.473V109.556H118.305H115.389V112.473V115.389H112.644H109.9V109.908V104.427L115.475 104.333L121.05 104.238V98.5774V92.9163L116.676 92.8202C113.001 92.7396 112.301 92.8055 112.301 93.2316C112.301 94.7522 110.385 99.5055 108.843 101.811C102.816 110.823 91.8263 114.113 81.4775 110.005L79.3023 109.142L75.2541 110.213C69.0577 111.852 68.1424 111.153 69.5985 105.89C70.6171 102.208 70.649 100.263 69.7251 98.2343C69.3381 97.3851 68.8282 95.8412 68.5918 94.8033L68.1619 92.9163L66.2149 92.8134L64.2678 92.7105V101.13V109.549L50.2866 109.638L36.3054 109.728L36.2059 112.559L36.1061 115.389H33.3754H30.6444V118.134V120.879H27.8996H25.1548V115.218V109.556H22.2385H19.3222V115.218V120.879H16.5774H13.8326V123.967V127.054H16.5774H19.3222V124.138V121.222H22.2385H25.1548V124.138V127.054H27.8996H30.6444V124.138V121.222H36.1202H41.5956L41.6955 124.052L41.795 126.883L44.7971 126.982L47.7992 127.081V124.151V121.222H53.2887H58.7782V123.967V126.711H55.8561H52.9336L53.0255 135.203L53.1172 143.695L58.6925 143.789L64.2678 143.883V146.619V149.356H58.6067H52.9456V155.017V160.678H56.0335H59.1213V157.762V154.845H61.8661H64.6109V152.1V149.356H67.3556H70.1004V152.1V154.845H72.8452H75.59V160.506V166.167H78.5063H81.4226V169.084V172H84.3389H87.2552V169.084V166.167H84.5105H81.7657V163.423V160.678H84.5105H87.2552V157.762V154.845H84.5105H81.7657V149.362V143.878L90.0858 143.787L98.4059 143.695L98.5002 138.119L98.5946 132.544H101.317H104.039L104.139 135.374L104.238 138.205L109.799 138.299L115.361 138.393L115.46 141.044L115.561 143.695L118.22 143.795L120.879 143.895V146.625V149.356H115.218H109.556V155.017V160.678H106.983H104.41V157.762V154.845H101.322H98.2343V157.762V160.678H95.4895H92.7448V163.423V166.167H95.6611H98.5774V163.423V160.678H101.322H104.067V166.339V172H106.983H109.9V169.084V166.167H112.816H115.732V160.506V154.845H118.477H121.222V152.1V149.356H129.628H138.033V157.762V166.167H135.289H132.544V160.506V154.845H129.628H126.711V157.762V160.678H123.795H120.879V166.339V172H123.967H127.054V169.084V166.167H129.628H132.201V169.084V172H135.289H138.377V169.084V166.167H141.121H143.866V160.506V154.845H149.356H154.845V157.762V160.678H152.1H149.356V166.339V172H152.092H154.828L154.922 166.425L155.017 160.849L157.847 160.75L160.678 160.65V166.325V172H163.423H166.167V166.339V160.678H169.084H172V157.762V154.845H169.084H166.167V157.762V160.678H163.423H160.678V157.762V154.845H157.747H154.816L154.917 152.186L155.017 149.527L157.847 149.428L160.678 149.328V146.426V143.523H157.762H154.845V138.033V132.544H157.762H160.678V135.46V138.377H163.423H166.167V135.46V132.544H169.084H172V129.628V126.711H166.339H160.678V118.305V109.9H163.423H166.167V101.494V93.0879H169.084H172V87.2552V81.4226H166.339H160.678V78.5063V75.59H155.017H149.356V72.8452V70.1004H140.95H132.544V67.3556V64.6109H140.95H149.356V61.8661V59.1213H152.1H154.845V56.0335V52.9456H152.1H149.356V55.8619V58.7782H143.88H138.404L138.305 55.9477L138.205 53.1172L135.203 53.018L132.201 52.9188V55.8485V58.7782H126.711H121.222V56.0335V53.2887H124.138H127.054V41.9665V30.6444H123.967H120.879V33.3891V36.1339H118.305H115.732V33.3891V30.6444H112.644H109.556V39.2218V47.7992H112.644H115.732V44.8828V41.9665H118.305H120.879V47.4475V52.9284L115.303 53.0228L109.728 53.1172L109.629 55.9477L109.529 58.7782H106.798H104.067V61.523V64.2678H101.322H98.5774V58.7782V53.2887H101.494H104.41V41.9665V30.6444H101.494H98.5774V27.8996V25.1548H109.9H121.222V19.4937V13.8326H124.138H127.054V10.9163V8H123.967H120.879V10.9163V13.8326H118.305H115.732V10.9163V8H109.9H104.067V10.9163V13.8326H101.322H98.5774V10.9163V8H87.0837H75.59V10.9163V13.8326H73.0167H70.4435V10.9163V8H61.6946H52.9456V13.6611ZM132.201 27.8996V47.7992H152.1H172V27.8996V8H152.1H132.201V27.8996ZM41.6234 27.728V41.6234H27.728H13.8326V27.728V13.8326H27.728H41.6234V27.728ZM109.556 16.5774V19.3222H106.983H104.41V16.5774V13.8326H106.983H109.556V16.5774ZM166.167 27.728V41.6234H152.272H138.377V27.728V13.8326H152.272H166.167V27.728ZM19.3222 27.8996V36.477H27.8996H36.477V27.8996V19.3222H27.8996H19.3222V27.8996ZM143.523 27.8996V36.477H152.1H160.678V27.8996V19.3222H152.1H143.523V27.8996ZM98.2343 33.3891V36.1339H95.6611H93.0879V33.3891V30.6444H95.6611H98.2343V33.3891ZM70.1004 39.0502V41.6234H67.3556H64.6109V39.0502V36.477H67.3556H70.1004V39.0502ZM92.7448 39.0502V41.6234H90H87.2552V39.0502V36.477H90H92.7448V39.0502ZM64.2678 44.8828V47.7992H67.1841H70.1004V50.3724V52.9456H64.6109H59.1213V47.4561V41.9665H61.6946H64.2678V44.8828ZM75.59 44.7113V47.4561H73.0167H70.4435V44.7113V41.9665H73.0167H75.59V44.7113ZM86.9121 44.8828V47.7992H89.8285H92.7448V53.2887V58.7782H90.0137H87.283L87.1832 55.9477L87.0837 53.1172L84.4247 53.017L81.7657 52.9168V47.4417V41.9665H84.3389H86.9121V44.8828ZM98.2343 44.7113V47.4561H95.6611H93.0879V44.7113V41.9665H95.6611H98.2343V44.7113ZM8 58.7782V64.6109H10.9163H13.8326V58.7782V52.9456H10.9163H8V58.7782ZM160.678 56.0335V59.1213H163.423H166.167V61.6946V64.2678H160.506H154.845V67.3556V70.4435H160.506H166.167V73.1883V75.9331H169.084H172V73.0167V70.1004H169.084H166.167V67.3556V64.6109H169.084H172V58.7782V52.9456H166.339H160.678V56.0335ZM58.7782 56.0335V58.7782H56.0335H53.2887V56.0335V53.2887H56.0335H58.7782V56.0335ZM81.4226 58.7782V64.2678H78.6778H75.9331V61.523V58.7782H73.1883H70.4435V56.0335V53.2887H75.9331H81.4226V58.7782ZM47.4561 61.6946V64.2678H44.7113H41.9665V61.6946V59.1213H44.7113H47.4561V61.6946ZM120.879 61.8661V64.6109H123.795H126.711V67.3556V70.1004H121.235H115.76L115.66 67.2699L115.561 64.4393L112.73 64.3398L109.9 64.24V61.6808V59.1213H115.389H120.879V61.8661ZM41.6955 67.4414L41.795 70.272L44.6255 70.3715L47.4561 70.4713V73.0167V75.5622L44.6255 75.662L41.795 75.7615V78.6778V81.5941L47.3703 81.6885L52.9456 81.7828V84.3475V86.9121H44.7113H36.477V84.1674V81.4226H33.5607H30.6444V75.9331V70.4435H33.5607H36.477V67.5272V64.6109H39.0365H41.5956L41.6955 67.4414ZM115.389 73.0167V75.59H112.644H109.9V73.0167V70.4435H112.644H115.389V73.0167ZM85.5782 72.3583C75.0798 75.1817 69.5686 86.416 73.6844 96.6053L74.5435 98.7321L73.3187 103.14C72.6448 105.564 72.1717 107.625 72.2671 107.72C72.3621 107.816 74.512 107.349 77.044 106.682L81.6473 105.471L83.851 106.375C95.2192 111.037 108.161 102.111 108.18 89.5934C108.186 85.7984 107.886 85.1967 105.99 85.1967H104.465L104.655 88.3816C105.332 99.7347 94.4009 107.48 84.212 102.867L82.0264 101.878L79.6426 102.492C76.7239 103.244 76.7558 103.275 77.5926 100.486L78.2743 98.2134L77.2667 96.2512C72.1648 86.3151 79.1369 75.4184 90.5956 75.4184H94.8033V73.9517C94.8033 71.7668 90.5253 71.0278 85.5782 72.3583ZM100.194 72.3721C100.06 72.5066 99.9498 73.5094 99.9498 74.6008V76.5849L97.977 76.6879L96.0042 76.7908V78.3347V79.8787L97.9605 79.9809L99.9165 80.0835L100.019 82.0395L100.121 83.9958H101.837H103.552L103.655 82.0395L103.757 80.0835L105.713 79.9809L107.669 79.8787V78.3347V76.7908L105.712 76.6882L103.756 76.586L103.654 74.4581L103.552 72.3305L101.996 72.229C101.139 72.1731 100.329 72.2376 100.194 72.3721ZM149.356 78.8494V81.7657H152.1H154.845V87.4268V93.0879H157.762H160.678V98.5774V104.067H157.762H154.845V101.151V98.2343H149.356H143.866V95.6611V93.0879H146.611H149.356V90V86.9121H146.439H143.523V89.8285V92.7448H138.033H132.544V90.0137V87.283L135.374 87.1832L138.205 87.0837V84.3389V81.5941L135.374 81.4946L132.544 81.3948V78.6641V75.9331H140.95H149.356V78.8494ZM82.7391 81.8515C79.8347 84.2017 80.6966 88.3363 85.0773 93.068C90.3143 98.7242 97.9928 100.105 99.2327 95.6137C99.6966 93.9346 99.4907 93.6265 97.2253 92.6099C94.7316 91.4907 94.7093 91.4918 93.6255 92.7801C92.2634 94.3988 89.309 93.1513 86.9687 89.9688L85.9247 88.5494L86.7715 87.27L87.6182 85.9909L86.5934 83.7066C85.5068 81.285 84.2103 80.6609 82.7391 81.8515ZM30.6444 84.3389V86.9121H27.8996H25.1548V84.3389V81.7657H27.8996H30.6444V84.3389ZM25.1548 90V92.7448H19.4937H13.8326V90V87.2552H19.4937H25.1548V90ZM36.1339 95.6611V98.2343H30.6444H25.1548V95.6611V93.0879H30.6444H36.1339V95.6611ZM47.4561 95.6611V98.2343H44.7113H41.9665V95.6611V93.0879H44.7113H47.4561V95.6611ZM149.356 106.983V109.556H143.866H138.377V106.983V104.41H143.866H149.356V106.983ZM8 112.644V115.732H10.9163H13.8326V112.644V109.556H10.9163H8V112.644ZM138.033 115.389V120.879H132.544H127.054V118.32V115.761L129.713 115.661L132.372 115.561L132.472 112.73L132.572 109.9H135.302H138.033V115.389ZM154.845 115.389V120.879H149.356H143.866V118.305V115.732H146.611H149.356V112.816V109.9H152.1H154.845V115.389ZM47.4561 118.305V120.879H44.7113H41.9665V118.305V115.732H44.7113H47.4561V118.305ZM81.4998 121.308L81.5941 126.883L87.1695 126.977L92.7448 127.072V129.636V132.201H89.8285H86.9121V135.117V138.033H81.4226H75.9331V129.456V120.879H73.1883H70.4435V118.305V115.732H75.9245H81.4054L81.4998 121.308ZM104.067 118.305V120.879H101.151H98.2343V123.795V126.711H95.6611H93.0879V121.222V115.732H98.5774H104.067V118.305ZM70.1004 123.967V126.711H67.3556H64.6109V123.967V121.222H67.3556H70.1004V123.967ZM109.556 123.967V126.711H106.983H104.41V123.967V121.222H106.983H109.556V123.967ZM120.879 129.628V132.201H115.389H109.9V129.628V127.054H115.389H120.879V129.628ZM143.523 135.289V143.523H135.289H127.054V135.289V127.054H135.289H143.523V135.289ZM8 152.1V172H27.8996H47.7992V152.1V132.201H27.8996H8V152.1ZM132.273 135.189L132.372 138.205H135.289H138.205V135.289V132.372L135.189 132.273L132.174 132.174L132.273 135.189ZM64.2678 135.289V138.033H61.6946H59.1213V135.289V132.544H61.6946H64.2678V135.289ZM41.6234 152.272V166.167H27.728H13.8326V152.272V138.377H27.728H41.6234V152.272ZM70.1004 140.95V143.523H67.3556H64.6109V140.95V138.377H67.3556H70.1004V140.95ZM19.3222 152.1V160.678H27.8996H36.477V152.1V143.523H27.8996H19.3222V152.1ZM166.167 146.439V149.356H169.084H172V146.439V143.523H169.084H166.167V146.439ZM75.59 146.611V149.356H73.0167H70.4435V146.611V143.866H73.0167H75.59V146.611ZM154.845 146.611V149.356H152.1H149.356V146.611V143.866H152.1H154.845V146.611ZM52.9456 169.084V172H56.0335H59.1213V169.084V166.167H56.0335H52.9456V169.084ZM64.2678 169.084V172H67.3556H70.4435V169.084V166.167H67.3556H64.2678V169.084Z" fill="#2C2C2C"/>
</svg>
