<svg width="326" height="86" viewBox="0 0 326 86" fill="none" xmlns="http://www.w3.org/2000/svg">
<path fill-rule="evenodd" clip-rule="evenodd" d="M119.628 1.5928C119.949 2.5493 125.065 20.3525 132.268 45.5807C136.352 59.8825 138.38 63.7348 143.117 66.187C145.316 67.3255 152.226 67.4173 155.034 66.3452C158.308 65.095 161.075 61.356 163.326 55.1402C164.247 52.5985 179.063 1.50657 179.063 0.874335C179.063 0.405026 167.947 0.368863 167.654 0.837378C167.483 1.11078 158.08 34.5764 156.974 38.8475C156.093 42.2487 153.321 51.793 152.765 53.3408C151.684 56.3478 150.054 57.4788 147.952 56.6808C146.459 56.1138 145.603 53.5407 139.107 30.105C135.371 16.6246 132.647 6.88475 131.41 2.58626L130.81 0.5H125.035H119.261L119.628 1.5928ZM195.858 19.5633C188.612 21.0753 185.262 24.2484 183.228 31.5241C182.648 33.6016 182.513 35.6747 182.507 42.6226C182.501 50.337 182.589 51.4751 183.416 54.3454C186.017 63.37 191.019 66.2486 204.969 66.7509C210.293 66.9424 217.345 66.553 222.153 65.8023L223.673 65.5651L223.559 61.6425L223.445 57.72L211.396 57.6222C199.44 57.5252 199.331 57.5169 197.338 56.531C194.833 55.292 193.704 53.3702 193.404 49.8403C193.198 47.4122 193.222 47.33 194.06 47.5374C198.874 48.728 213.163 48.8679 217.219 47.7639C221.849 46.5038 223.854 43.8958 224.484 38.3138C225.246 31.5638 223.749 25.4473 220.713 22.9068C216.315 19.2263 204.86 17.6852 195.858 19.5633ZM245.725 19.5505C236.108 21.5589 232.754 26.4682 231.86 39.8493C231.496 45.299 232.244 52.98 233.52 56.9053C235.18 62.0093 237.782 64.5263 243.104 66.1763C245.597 66.9492 246.779 67.0505 252.965 67.0219C258.478 66.9965 260.373 66.8471 261.752 66.3301C262.718 65.9676 263.667 65.6708 263.86 65.6708C264.36 65.6708 264.291 69.9395 263.762 71.8255C263.171 73.9324 261.13 75.7751 258.719 76.3787C257.414 76.7053 254.091 76.8245 248.547 76.7427L240.314 76.6219V80.5842V84.5465L243.928 85.0126C249.102 85.6802 259.1 85.658 262.73 84.9705C269.956 83.6027 273.221 80.2142 274.952 72.284C275.569 69.4551 275.658 66.7028 275.658 50.3716C275.658 31.9076 275.647 31.6608 274.72 28.7388C273.915 26.2031 273.453 25.4644 271.468 23.5426C268.945 21.1007 266.278 19.99 260.998 19.1842C256.939 18.5646 249.605 18.7403 245.725 19.5505ZM294.937 19.8136C294.053 19.8975 292.201 20.0711 290.82 20.1995L288.31 20.4323L288.309 24.4741L288.309 28.5155L297.931 28.3963C308.295 28.2675 309.978 28.4773 311.982 30.1452C313.332 31.269 314.416 34.2243 314.416 36.7771C314.416 38.1961 314.335 38.3173 313.513 38.1159C310.196 37.3032 303.208 36.9825 298.648 37.4348C289.596 38.3317 286.359 40.5506 284.847 46.8964C284.071 50.151 284.297 56.4158 285.308 59.7101C286.259 62.8096 288.836 65.2194 292.329 66.274C294.638 66.971 296.112 67.0616 305.179 67.0616C316.578 67.0616 318.547 66.739 321.413 64.4012C324.569 61.8273 325.261 58.4154 325.261 45.4214C325.261 31.5746 324.194 26.7988 320.309 23.2557C317.23 20.4474 314.797 19.8943 304.978 19.7687C300.339 19.7095 295.82 19.7298 294.937 19.8136ZM210.389 27.9941C213.864 28.7877 214.754 30.4531 214.488 35.6684C214.357 38.2236 214.109 38.8149 212.856 39.5469C211.843 40.139 210.569 40.2383 203.984 40.2383C194.266 40.2383 194.006 40.1413 193.361 36.2645C193.234 35.4995 193.284 33.9183 193.473 32.7504C193.897 30.1249 195.123 28.8052 197.801 28.0935C200.275 27.4354 207.687 27.377 210.389 27.9941ZM260.727 29.348C264.389 30.5827 265.027 32.3506 265.3 42.0265C265.595 52.4717 264.944 55.0567 261.605 56.6959C260.288 57.3429 259.176 57.4557 254.201 57.4466C247.932 57.435 246.66 57.1636 244.843 55.4481C242.834 53.5514 242.349 51.1838 242.339 43.2187C242.332 37.3934 242.462 35.6902 243.04 34.0435C243.904 31.5805 245.462 30.0291 247.795 29.3095C250.347 28.5219 258.347 28.5457 260.727 29.348ZM311.969 45.9233C314.324 46.7399 314.983 48.0779 314.958 51.9897C314.941 54.7372 314.784 55.5944 314.139 56.4571C312.671 58.419 311.564 58.6769 304.565 58.686C298.827 58.6936 297.978 58.6073 296.741 57.8932C295.165 56.9824 294.416 55.1374 294.365 52.0477C294.313 48.8404 295.581 46.7756 298.15 45.8847C299.826 45.3037 310.265 45.3327 311.969 45.9233Z" fill="white"/>
<path d="M25.2477 42.9981L43.2261 25.0404L0.738281 0.54657L25.2477 42.9981Z" fill="white"/>
<path d="M98.8612 0.5L49.7864 85.5L25.249 43L98.8612 0.5Z" fill="#FFB81C"/>
</svg>
